<?xml version="1.0" standalone="no"?><!DOCTYPE svg PUBLIC "-//W3C//DTD SVG 1.1//EN" "http://www.w3.org/Graphics/SVG/1.1/DTD/svg11.dtd"><svg t="1767185316819" class="icon" viewBox="0 0 1024 1024" version="1.1" xmlns="http://www.w3.org/2000/svg" p-id="1206" width="64" height="64" xmlns:xlink="http://www.w3.org/1999/xlink"><path d="M81.92 890.88V174.08C81.92 76.10368 166.05184 0 265.54368 0h611.69664a30.72 30.72 0 0 1 30.72 30.72v764.60032a30.72 30.72 0 0 1-30.72 30.72H265.54368c-29.61408 0-52.55168 0.98304-70.4512 3.4816-18.0224 2.49856-28.71296 6.22592-35.2256 10.15808-9.0112 5.40672-16.50688 14.82752-16.50688 51.2l-0.16384 3.15392A30.72 30.72 0 0 1 81.92 890.88z m61.44-111.37024c13.1072-5.3248 27.72992-8.68352 43.33568-10.81344 22.07744-3.072 48.3328-4.096 78.848-4.096h580.97664V61.44H265.54368C196.1984 61.44 143.36 113.70496 143.36 174.08v605.42976z" p-id="1207" fill="#13227a"></path><path d="M877.24032 764.55936a30.72 30.72 0 0 1 30.72 30.76096v191.11936a30.72 30.72 0 0 1-30.72 30.72H208.19968a126.32064 126.32064 0 0 1 0-252.55936h669.04064zM143.36 890.88c0 35.79904 29.04064 64.83968 64.83968 64.88064h638.32064v-129.76128H208.19968c-35.79904 0-64.83968 29.0816-64.83968 64.88064z" p-id="1208" fill="#13227a"></path></svg>